<svg width="32" height="32" viewBox="0 0 32 32" fill="none" xmlns="http://www.w3.org/2000/svg">
<path d="M28.0613 17.0615L19.0613 26.0615C18.7795 26.3433 18.3973 26.5016 17.9988 26.5016C17.6002 26.5016 17.218 26.3433 16.9363 26.0615C16.6545 25.7797 16.4961 25.3975 16.4961 24.999C16.4961 24.6005 16.6545 24.2183 16.9363 23.9365L23.375 17.5002H5C4.60218 17.5002 4.22064 17.3422 3.93934 17.0609C3.65804 16.7796 3.5 16.398 3.5 16.0002C3.5 15.6024 3.65804 15.2209 3.93934 14.9396C4.22064 14.6583 4.60218 14.5002 5 14.5002H23.375L16.9387 8.06022C16.657 7.77843 16.4986 7.39623 16.4986 6.99772C16.4986 6.5992 16.657 6.21701 16.9387 5.93522C17.2205 5.65343 17.6027 5.49512 18.0012 5.49512C18.3998 5.49512 18.782 5.65343 19.0637 5.93522L28.0637 14.9352C28.2036 15.0748 28.3145 15.2406 28.3901 15.4231C28.4657 15.6056 28.5045 15.8013 28.5043 15.9989C28.5041 16.1964 28.4648 16.392 28.3888 16.5744C28.3128 16.7567 28.2014 16.9223 28.0613 17.0615Z" fill="white"/>
</svg>
