<svg width="48" height="48" viewBox="0 0 48 48" fill="none" xmlns="http://www.w3.org/2000/svg">
<g clip-path="url(#clip0_1472_2154)">
<path d="M47.6923 20.1994C47.0762 16.4774 45.6131 12.9352 43.38 9.88066C41.1468 6.82611 38.2463 4.33627 34.858 2.64215C31.4955 0.922368 27.7736 0.0239726 24.0003 0.0239726C20.227 -0.00169584 16.4794 0.8967 13.1169 2.59082C9.75431 4.3106 6.8281 6.80044 4.59495 9.85499C2.38746 12.9095 0.898692 16.4518 0.308317 20.1994C-0.282057 23.947 0.000295802 27.7459 1.15538 31.3395C2.97784 28.978 5.18532 26.9245 7.64949 25.2561C7.62383 24.8454 7.59816 24.409 7.59816 23.9726C7.59816 19.609 9.31794 15.425 12.3982 12.3448C15.4784 9.26461 19.6623 7.54483 24.026 7.54483C28.3896 7.54483 32.5736 9.26461 35.6538 12.3448C38.734 15.425 40.4538 19.609 40.4538 23.9726C40.4538 24.409 40.4538 24.8197 40.4024 25.2561C42.8666 26.9245 45.0484 28.978 46.8709 31.3395C48.026 27.7459 48.3083 23.9213 47.6923 20.1994Z" fill="#6029CD"/>
<path d="M13.2959 27.8263C14.0916 30.0338 15.5291 31.959 17.4542 33.3194C19.3793 34.6798 21.6638 35.3985 23.9996 35.3985C26.3355 35.3985 28.6456 34.6798 30.5451 33.3194C32.4702 31.959 33.9077 30.0595 34.7034 27.8263C31.3665 26.1579 27.7216 25.2852 23.9996 25.2852C20.2777 25.2852 16.6071 26.1579 13.2959 27.8263Z" fill="#6029CD"/>
<path d="M31.4948 15.4524C29.4157 13.63 26.7718 12.6289 24.0253 12.6289C21.2788 12.6289 18.6092 13.63 16.5558 15.4524C14.4766 17.2749 13.1419 19.7647 12.7568 22.4856C16.3248 20.9712 20.1493 20.2011 24.0253 20.2011C27.9012 20.2011 31.7258 20.9712 35.2937 22.4856C34.9087 19.7647 33.574 17.2492 31.4948 15.4524Z" fill="#6029CD"/>
<path d="M39.0673 30.5977C37.7838 33.5239 35.679 36.0137 33.0095 37.7592C30.34 39.5046 27.2084 40.4287 24.0256 40.4287C20.8427 40.4287 17.7111 39.5046 15.0416 37.7592C12.3721 36.0137 10.2673 33.5239 8.98385 30.5977C6.87903 32.2918 5.05657 34.3453 3.61914 36.6297C5.77529 40.095 8.7785 42.9698 12.3464 44.972C15.9143 46.9741 19.9443 48.0009 24.0256 48.0009C28.1068 48.0009 32.1368 46.9485 35.7047 44.972C39.2726 42.9698 42.2758 40.1207 44.432 36.6297C42.9945 34.3196 41.1978 32.2918 39.0673 30.5977Z" fill="#6029CD"/>
</g>
<defs>
<clipPath id="clip0_1472_2154">
<rect width="48" height="48" fill="white"/>
</clipPath>
</defs>
</svg>
